<svg xmlns="http://www.w3.org/2000/svg" xmlns:xlink="http://www.w3.org/1999/xlink" id="logo_svg" version="1.1" x="0px" y="0px" width="255" height="62" viewBox="246.578 270.092 299.061 72.338" enable-background="new 246.578 270.092 299.061 72.338" xml:space="preserve">
<circle fill="#FFFFFF" cx="282.7" cy="306.3" r="36.2"/>
<g>
	<g>
		<g>
			<g>
				<path fill="#0093D1" d="M315.7 302.656c0.127 1.2 0.2 2.4 0.2 3.607c0 18.309-14.842 33.151-33.15 33.2 c-18.31 0-33.151-14.842-33.151-33.151c0-18.311 14.842-33.154 33.151-33.154c15.469 0 28.5 10.6 32.1 24.9 c1.029-0.018 2.043-0.096 3.041-0.227c-3.808-15.895-18.102-27.713-35.162-27.713c-19.974 0-36.167 16.193-36.167 36.2 c0 20 16.2 36.2 36.2 36.167c19.975 0 36.168-16.193 36.168-36.167c0-1.355-0.08-2.688-0.227-4.002 C317.717 302.5 316.7 302.6 315.7 302.656z"/>
			</g>
			<path fill="#0093D1" d="M408.186 337.164l-2.34 4.658h-1.901l7.61-14.738h2.144l2.035 14.738h-1.859l-0.592-4.658H408.186z M413.15 335.723l-0.589-4.266c-0.065-0.766-0.178-1.859-0.241-2.713h-0.066c-0.393 0.875-0.766 1.793-1.201 2.689l-2.188 4.3 H413.15L413.15 335.723z"/>
			<path fill="#0093D1" d="M427.465 331.236l-1.44 7.504c-0.222 1.178-0.373 2.207-0.462 3.082h-1.641l0.285-1.99h-0.043 c-0.963 1.379-2.342 2.23-3.74 2.23c-1.354 0-2.801-0.654-2.801-3.062c0-0.504 0.066-1.097 0.197-1.793l1.16-5.974h1.793 l-1.117 5.906c-0.109 0.592-0.174 1.094-0.174 1.553c0 1.1 0.4 1.8 1.7 1.837c1.334 0 3.02-1.554 3.457-3.869 l1.027-5.427h1.814V331.236z"/>
			<path fill="#0093D1" d="M433.406 328.699l-0.48 2.537h2.537l-0.285 1.422h-2.535l-0.965 5.2 c-0.131 0.59-0.219 1.137-0.219 1.684c0 0.6 0.3 1 1 1.027c0.328 0 0.611-0.021 0.853-0.086l-0.089 1.4 c-0.327 0.133-0.872 0.197-1.399 0.197c-1.594 0-2.23-0.961-2.23-2.056c0-0.61 0.089-1.225 0.242-1.989l1.027-5.359h-1.508 l0.262-1.422h1.51l0.373-1.943L433.406 328.699z"/>
			<path fill="#0093D1" d="M439.982 342.062c-2.646 0-4.134-1.969-4.134-4.352c0-3.498 2.429-6.713 5.861-6.713 c2.865 0 4.2 2.2 4.2 4.395c0 3.279-2.32 6.67-5.861 6.67H439.982z M440.199 340.619c2.145 0 3.762-2.756 3.762-5.227 c0-1.226-0.566-2.953-2.469-2.953c-2.275 0-3.785 2.778-3.785 5.205c0 1.7 1 3 2.5 2.975H440.199z"/>
			<path fill="#0093D1" d="M456.346 327.084l-2.801 14.738h-1.813l2.799-14.738H456.346z"/>
			<path fill="#0093D1" d="M456.959 341.822l1.398-7.5c0.239-1.182 0.393-2.211 0.504-3.086h1.639l-0.283 2.08h0.045 c0.961-1.488 2.384-2.318 3.935-2.318c1.248 0 2.7 0.7 2.7 2.93c0 0.482-0.088 1.158-0.197 1.707l-1.182 6.188h-1.793 l1.16-6.125c0.065-0.391 0.131-0.896 0.131-1.354c0-1.047-0.416-1.834-1.66-1.834c-1.293 0-3.131 1.554-3.611 4.175l-0.963 5.1 h-1.792V341.822z"/>
			<path fill="#0093D1" d="M468.254 340.008c0.48 0.3 1.4 0.7 2.3 0.654c1.225 0 2.012-0.785 2.012-1.727 c0-0.832-0.373-1.355-1.486-1.97c-1.227-0.676-1.901-1.596-1.901-2.688c0-1.859 1.594-3.279 3.848-3.279 c0.941 0 1.8 0.3 2.2 0.523l-0.502 1.377c-0.373-0.217-1.026-0.48-1.815-0.48c-1.115 0-1.902 0.699-1.902 1.6 c0 0.8 0.5 1.2 1.5 1.771c1.181 0.7 2 1.6 2 2.801c0 2.229-1.793 3.478-4.046 3.5 c-1.139-0.021-2.143-0.351-2.627-0.722L468.254 340.008z"/>
			<path fill="#0093D1" d="M486.543 331.236l-1.443 7.504c-0.217 1.178-0.371 2.207-0.457 3.082h-1.641l0.285-1.99h-0.045 c-0.963 1.379-2.34 2.23-3.738 2.23c-1.354 0-2.801-0.654-2.801-3.062c0-0.504 0.063-1.097 0.197-1.793l1.157-5.974h1.795 l-1.114 5.906c-0.111 0.592-0.176 1.094-0.176 1.553c0 1.1 0.4 1.8 1.7 1.837c1.332 0 3.018-1.554 3.455-3.869 l1.026-5.427h1.815V331.236z"/>
			<path fill="#0093D1" d="M487.236 341.822l1.289-6.822c0.264-1.379 0.416-2.777 0.524-3.764h1.599 c-0.066 0.744-0.154 1.467-0.285 2.297h0.063c0.699-1.443 1.816-2.535 3.238-2.535c0.174 0 0.4 0 0.5 0.043l-0.35 1.8 c-0.131-0.021-0.307-0.045-0.504-0.045c-1.553 0-2.951 1.902-3.41 4.354l-0.875 4.68H487.236L487.236 341.822z"/>
			<path fill="#0093D1" d="M500.678 341.822c0-0.633 0.107-1.639 0.24-2.732h-0.045c-1.158 2.207-2.625 2.973-4.111 3 c-1.881 0-3.039-1.485-3.039-3.498c0-3.694 2.709-7.565 7.306-7.565c1.006 0 2.1 0.2 2.8 0.394l-1.07 5.5 c-0.352 1.836-0.483 3.72-0.438 4.898L500.678 341.822L500.678 341.822z M501.836 332.592c-0.262-0.084-0.635-0.152-1.248-0.152 c-2.731 0-4.984 2.845-4.984 5.797c0 1.2 0.4 2.3 1.8 2.341c1.528 0 3.325-1.97 3.825-4.791L501.836 332.592z"/>
			<path fill="#0093D1" d="M504.779 341.822l1.397-7.5c0.24-1.182 0.396-2.211 0.504-3.086h1.64l-0.283 2.08h0.043 c0.963-1.488 2.385-2.318 3.938-2.318c1.248 0 2.7 0.7 2.7 2.93c0 0.482-0.088 1.158-0.198 1.707l-1.181 6.188h-1.793 l1.158-6.125c0.066-0.391 0.133-0.896 0.133-1.354c0-1.047-0.416-1.834-1.664-1.834c-1.291 0-3.127 1.554-3.608 4.2 l-0.961 5.141h-1.794V341.822z"/>
			<path fill="#0093D1" d="M523.451 341.408c-0.547 0.283-1.639 0.654-3.062 0.654c-2.731 0-4.067-1.836-4.067-4.088 c0-3.634 2.67-6.978 6.475-6.978c0.982 0 1.9 0.3 2.2 0.479l-0.521 1.42c-0.419-0.194-1.011-0.391-1.796-0.391 c-2.756 0-4.483 2.711-4.483 5.227c0 1.7 0.9 2.8 2.6 2.843c1.094 0 1.901-0.328 2.449-0.591L523.451 341.408z"/>
			<path fill="#0093D1" d="M532.918 341.23c-0.787 0.438-2.078 0.832-3.5 0.832c-2.801 0-4.023-1.924-4.023-4.265 c0-3.194 2.361-6.801 5.771-6.801c2.014 0 3.1 1.2 3.1 2.731c0 2.777-3.127 3.5-7.041 3.4 c-0.091 0.461-0.023 1.4 0.2 2.012c0.416 1 1.3 1.4 2.4 1.423c1.248 0 2.189-0.371 2.847-0.722L532.918 341.23z M532.523 333.752c0-0.854-0.654-1.334-1.619-1.334c-1.728 0-3.019 1.684-3.455 3.346c2.844 0 5.074-0.35 5.074-1.988 V333.752L532.523 333.752z"/>
			<path fill="#005288" d="M307.493 304.283c0.035 0.4 0.3 2.351-0.918 4.455c-0.626 1.037-2.105 0.732-2.412 0 c-0.252-0.566 0.011-0.851 0.219-1.121c0.297-0.385 0.137-0.441-0.133-0.592c-0.381-0.211-0.132-0.358 0.199-0.295 c0.316 0.1 0.221-0.262 0.012-0.5c-0.114-0.129-1.115-0.583-1.734 0.45c-0.246 0.41-1.225 2.157-0.309 3.8 c1.746 3 5.4 1.9 6.9 0.089c1.326-1.613 2.482-3.973 2.56-7.055c-1.714-0.233-3.351-0.708-4.873-1.391 C307.396 303.2 307.5 304 307.5 304.283z M317.598 300.59c-1.803 0.14-3.656 0.038-5.516-0.346 c-2.558-0.528-4.896-1.532-6.942-2.897c1.633 0.7 3.4 1.1 5.2 1.304c0.317 0 0.6 0.1 0.9 0.1 c-1.417-4.637-3.37-5.877-3.997-7.519c-0.25-0.657-0.667-1.349-1.151-2.024c-1.168-1.726-2.829-3.46-4.677-5.092 c-0.936-0.826-3.693-1.088-6.455-0.582c-3.863-3.561-8.524-5.471-11.311-3.541c-0.031 0.021-0.059 0.049-0.091 0.1 c-0.767 0.457-1.279 1.108-1.604 1.859c-0.232 0.438-0.414 0.916-0.543 1.432c-1.627 0.127-5.917-0.749-5.917-0.749 s-7.712-2.124-12.949 6.831c0 0-2.61 3.865-2.898 7.883c-0.104 0.817-0.278 1.789-0.546 2.9 c-1.277 4.119-3.692 5.518-5.576 5.973v0.002c-0.106 0-0.193 0.084-0.193 0.189c0 0.1 0.1 0.2 0.2 0.2 c0.831-0.033 1.823-0.198 2.822-0.636c0.776-0.297 1.572-0.795 2.274-1.611c0.426-0.452 0.825-0.99 1.187-1.631 c0.168 2.4 0.1 5.617-1.116 7.607c0 0-3.251 5.991-2.704 11.101c5.075 9.5 15.1 15.9 26.6 15.9 c11.51 0 21.509-6.457 26.584-15.94h-12.24c-0.053-1.207-0.445-5.49-3.168-11.347c0 0-1.311-2.856-1.391-6.129 c-3.746-1.41-6.729-4.379-8.164-8.115l-0.009-0.025c0 0 0 0 0-0.001c-0.006-0.017-0.009-0.035-0.009-0.056 c0-0.105 0.086-0.193 0.193-0.193c0.066 0 0.1 0 0.2 0.087h0.002c1.492 2.3 4.3 5.5 8.8 7 c0 0 5.8 1.6 4.205-3.642c0 0 0.6 1 3.6 0.515c0 0 0.2 0.3 0.5 0.442c0.542 0.3 0.9 0.3 0.9 0.3 c0.34 0.6 1.1 0.9 1.482-0.016c0.043-0.124 0.072-0.236 0.096-0.337c1.338 0.6 2.8 1 4.2 1.3 c3.127 0.6 6.2 0.6 9.073-0.09c0.009-0.002 0.016-0.002 0.023-0.003c0.021-0.003 0.035-0.01 0.054-0.015 c0.03-0.006 0.062-0.012 0.092-0.019l0.001-0.005c0.304-0.082 0.521-0.224 0.499-0.348 C318.05 300.6 317.9 300.6 317.6 300.59z M261.791 321.391c0.029-5.902 1.702-8.138 2.121-9.086 c0.229-0.521 0.536-0.855 0.84-1.115c0.247 0.5 0.5 1.3 0.6 2.439c0.197 2.36-0.464 4.8 0.5 7.762H261.791z M281.362 308.186c-0.059 1.529-0.119 3.004-0.357 4.449l0.039-0.042c-0.502 2.869-1.779 6.164-0.903 8.798h-8.083 c-0.449-0.66-1.5-2.23-2.016-4.941c-0.451-3.021-0.388-4.172 0.316-6.199c0.704-2.025 2.545-2.818 3.016-2.9 c0.469-0.078 2.8 0.2 4.291-0.475c1.533-0.678 2.4-1.166 3.182-0.916C281.441 306.2 281.4 307.7 281.4 308.186z M287.581 310.516c0 0 3.2 4.1 3.3 10.875h-5.277C285.298 320.4 284.5 316.8 287.6 310.516z M303.276 292.6 c-0.717 0.08-1.361-0.432-1.439-1.152c-0.078-0.709 0.437-1.35 1.154-1.424c0.711-0.084 1.4 0.4 1.4 1.1 C304.497 291.9 304 292.5 303.3 292.577z"/>
			<path fill="#005288" d="M530.803 291.537l1.629-7.688h-7.926l-1.631 7.714l-3.252 0.224l-1.379 6.426l3.086 0.229l-2.795 13.1 c-0.234 0.979-0.354 1.975-0.353 3.021c-0.014 2.5 0.9 4.3 2.4 5.285c1.504 1 3.5 1.4 5.7 1.4 c2.699-0.002 5.623-0.516 8.119-1.674l0.379-0.178l-1.656-6.291l-0.528 0.225c-1.414 0.597-3.166 1.084-4.631 1.1 c-1.127-0.051-1.789-0.273-1.8-1.241c0-0.229 0-0.331 0.041-0.5l3.06-14.146h8.135l0.088-0.39l1.482-6.557H530.803 L530.803 291.537z M362.355 314.014c-0.525 0.213-1.086 0.359-1.61 0.359c-0.789-0.055-1.088-0.271-1.129-1.018 c0-0.223 0.006-0.476 0.041-0.606l-0.483-0.121l0.489 0.103l7.252-34.321h-7.923l-7.211 34 c-0.228 0.975-0.347 1.915-0.347 2.911c-0.005 1.9 0.6 3.4 1.6 4.399s2.628 1.4 4.5 1.4 c2.095 0 4.111-0.461 6.045-1.092l0.414-0.133l-1.079-6.141L362.355 314.014z M387.772 312.9 c-2.207 0.887-4.562 1.535-6.938 1.535c-3.77-0.053-6.148-1.738-6.336-5.395h18.443l0.131-0.299 c0.812-1.855 1.276-3.882 1.276-5.926c0.002-3.455-1.223-6.439-3.346-8.551c-2.117-2.113-5.117-3.338-8.597-3.338 c-9.506 0.018-15.915 7.906-15.933 16.995c-0.004 4.2 1.4 7.6 3.9 9.837c2.475 2.3 6 3.5 10 3.5 c3.281-0.002 6.554-0.808 9.48-2.24l0.389-0.19l-1.984-6.084L387.772 312.891z M382.071 297.5 c2.489 0 4.4 2.2 4.4 4.662c0 0.167-0.017 0.365-0.041 0.566h-10.881C376.583 299.9 379 297.5 382.1 297.5 z M420.668 294.46c-2.639-2.319-6.283-3.542-10.338-3.542c-3.391 0-6.916 0.801-10.1 1.938l-0.332 0.118v0.353 c0 1.247-0.162 2.619-0.437 3.877l-7.707 36.008h7.926l2.771-12.963c1.811 0.6 3.7 1 5.6 1 c9.359-0.019 16.809-7.408 16.828-16.771C424.918 300.2 423.3 296.8 420.7 294.46z M407.469 314.4 c-1.248 0-2.453-0.26-3.58-0.744l2.949-14.082c0.109-0.484 0.15-1.008 0.166-1.351c0.975-0.271 1.938-0.438 2.937-0.438 c4.25 0 6.5 2.6 6.6 6.791C416.502 309.6 412.7 314.4 407.5 314.371z M452.986 292.9 c-1.67-1.383-3.979-2-6.609-2c-2.34 0-4.75 0.488-6.939 1.309l3.017-13.819h-7.926l-9.14 42.181h7.929l4.582-21.157 c1.811-0.974 4.182-1.68 6.18-1.677c2.354 0.1 3.2 0.9 3.3 3.256c0 0.53-0.057 1.119-0.159 1.641l-3.832 17.938h7.924 l3.957-18.52l-0.488-0.104l0.49 0.091c0.168-0.897 0.342-1.825 0.342-2.784C455.635 296.4 454.7 294.3 453 292.92z M481.314 292.67c-2.043-1.27-4.662-1.75-7.193-1.752c-3.793 0.002-7.877 1.029-11.396 2.33l-0.463 0.17l2.187 6.168l0.479-0.183 c2.599-0.993 5.521-1.704 8.297-1.704c0.724-0.002 1.7 0.1 2.5 0.359c0.76 0.3 1.2 0.7 1.2 1.4 c0.029 0.95-0.914 1.62-2.791 2.185c-2.756 0.83-7.031 1.248-10.656 2.623c-3.621 1.35-6.715 3.851-6.696 8.7 c-0.017 3.2 1.6 5.3 4 6.536c2.352 1.2 5.4 1.6 8.5 1.649c4.442-0.004 9.01-0.846 11.653-1.709l0.339-0.108 l0.008-0.354c-0.002-0.004 0.065-2.762 0.324-3.822l2.92-13.477c0.176-0.811 0.293-1.686 0.293-2.573 C484.791 296.1 483.4 293.9 481.3 292.67z M474.248 312.633c-0.107 0.571-0.15 1.107-0.168 1.5 c-1.512 0.367-3.033 0.51-4.613 0.51c-0.949 0.002-2.121-0.102-2.983-0.473c-0.867-0.393-1.384-0.896-1.398-1.945 c-0.051-1.684 1.807-2.557 4.363-3.197c2.028-0.522 4.295-0.825 5.916-1.545L474.248 312.633z M511.873 292.8 c-1.92-1.374-4.504-1.882-7.338-1.884c-4.635 0.002-9.777 1.254-14.021 2.664l-0.328 0.111l-0.012 0.3 c0.002 0.004-0.119 2.996-0.324 3.828l-4.846 22.725h7.926l4.461-20.537c0.084-0.431 0.109-1.042 0.117-1.428 c1.666-0.537 3.563-0.872 5.396-0.872c2.465 0.1 4 0.7 4 3.205c0 0.734-0.105 1.483-0.271 2.185l-3.664 17.447h7.925 l3.51-16.784c0.281-1.358 0.514-2.739 0.514-4.142C514.977 296.4 513.8 294.2 511.9 292.802z M346.384 303.7 l1.495-7.026h-12.771l1.841-8.318h15.285l0.091-0.385l1.54-6.586h-23.465l-8.421 39.168h23.617l1.625-7.029h-15.797l2.178-9.823 L346.384 303.737L346.384 303.737z"/>
		</g>
	</g>
	<g>
		<path fill="#005288" d="M541.918 313.13c0.625 0 1.2 0.2 1.8 0.479c0.595 0.3 1.1 0.8 1.4 1.4 c0.332 0.6 0.5 1.2 0.5 1.867c0 0.641-0.163 1.259-0.489 1.851c-0.328 0.592-0.787 1.052-1.378 1.4 c-0.592 0.328-1.208 0.491-1.854 0.491c-0.645 0-1.263-0.163-1.853-0.491c-0.592-0.327-1.052-0.787-1.381-1.379 c-0.327-0.592-0.492-1.21-0.492-1.851c0-0.647 0.167-1.271 0.501-1.867c0.334-0.598 0.799-1.059 1.395-1.379 C540.683 313.3 541.3 313.1 541.9 313.13z M541.918 313.746c-0.521 0-1.032 0.134-1.527 0.4 c-0.493 0.269-0.882 0.65-1.161 1.149c-0.279 0.498-0.421 1.019-0.421 1.558c0 0.5 0.1 1.1 0.4 1.5 c0.275 0.5 0.7 0.9 1.2 1.149c0.494 0.3 1 0.4 1.5 0.413s1.052-0.139 1.545-0.413s0.877-0.657 1.149-1.149 c0.272-0.49 0.409-1.004 0.409-1.541c0-0.539-0.14-1.06-0.416-1.558c-0.278-0.499-0.666-0.882-1.162-1.149 C542.946 313.9 542.4 313.7 541.9 313.746z M540.285 318.914v-4.01h1.376c0.471 0 0.8 0 1 0.1 c0.211 0.1 0.4 0.2 0.5 0.389c0.124 0.2 0.2 0.4 0.2 0.588c0 0.293-0.104 0.547-0.314 0.8 c-0.208 0.219-0.483 0.34-0.83 0.366c0.142 0.1 0.3 0.1 0.3 0.212c0.16 0.2 0.4 0.4 0.6 0.795l0.488 0.785h-0.789 l-0.355-0.632c-0.28-0.498-0.506-0.81-0.677-0.935c-0.118-0.093-0.291-0.138-0.52-0.138h-0.379v1.703L540.285 318.9 L540.285 318.914z M540.932 316.658h0.784c0.375 0 0.631-0.057 0.769-0.168c0.137-0.112 0.205-0.26 0.205-0.444 c0-0.118-0.033-0.224-0.101-0.317c-0.064-0.094-0.157-0.164-0.272-0.211c-0.117-0.045-0.333-0.067-0.648-0.067h-0.735 L540.932 316.658L540.932 316.658z"/>
	</g>
</g>
</svg>
