<svg version="1.1" xmlns="http://www.w3.org/2000/svg" x="0" y="0" width="156.7" height="42" viewBox="82.2 30.8 156.7 42" xml:space="preserve" enable-background="new 82.167 30.833 156.667 42"><style type="text/css">
	.st0{fill:#FFFFFF;}
	.st1{fill:#005288;}
	.st2{fill:#0693CF;}
</style><circle class="st0" cx="103.1" cy="51" r="18"/><path class="st2" d="M119.6 49.2c0.1 0.6 0.1 1.2 0.1 1.8 0 9.2-7.4 16.6-16.6 16.6C93.9 67.6 86.5 60.2 86.5 51c0-9.1 7.4-16.6 16.6-16.6 7.8 0 14.3 5.3 16.1 12.5 0.5 0 1 0 1.5-0.1 -1.9-7.9-9-13.8-17.6-13.8C93.1 32.9 85 41 85 51s8.1 18.1 18.1 18.1S121.2 61 121.2 51c0-0.7 0-1.3-0.1-2C120.6 49.1 120.1 49.2 119.6 49.2z"/><path class="st0" d="M166.3 66.7l-1.1 2.4H164.2l3.8-7.4h1l1 7.4h-0.9l-0.3-2.3H166.3zM168.8 65.9l-0.3-2.1c0-0.4-0.1-0.9-0.1-1.4H168.3c-0.2 0.5-0.4 0.9-0.6 1.4L166.6 65.9H168.8z"/><path class="st0" d="M175.9 63.6l-0.7 3.8c-0.1 0.6-0.2 1.1-0.2 1.6h-0.8l0.2-1 0 0c-0.5 0.7-1.1 1.1-1.8 1.1 -0.7 0-1.4-0.3-1.4-1.5 0-0.2 0.1-0.5 0.1-0.9l0.6-3h0.9l-0.5 3c-0.1 0.3-0.1 0.6-0.1 0.8 0 0.6 0.2 0.9 0.9 0.9 0.6 0 1.5-0.8 1.8-1.9l0.5-2.7h0.8V63.6z"/><path class="st0" d="M178.9 62.4l-0.2 1.3h1.3l-0.1 0.7h-1.2l-0.5 2.6c0 0.3-0.1 0.6-0.1 0.9s0.2 0.5 0.5 0.5c0.1 0 0.3 0 0.4 0l0 0.7c-0.1 0.1-0.4 0.1-0.7 0.1 -0.8 0-1.1-0.5-1.1-1 0-0.3 0.1-0.6 0.1-1l0.5-2.7h-0.7L177 63.6h0.8l0.2-0.9L178.9 62.4z"/><path class="st0" d="M182.2 69.1c-1.3 0-2-1-2-2.2 0-1.7 1.2-3.3 3-3.3 1.4 0 2.1 1.1 2.1 2.2C185.1 67.4 184 69.1 182.2 69.1L182.2 69.1zM182.3 68.4c1.1 0 1.9-1.4 1.9-2.6 0-0.6-0.3-1.5-1.2-1.5 -1.1 0-1.9 1.4-1.9 2.6C181 67.8 181.6 68.4 182.3 68.4L182.3 68.4z"/><path class="st0" d="M190.4 61.6l-1.4 7.4h-0.9l1.4-7.4H190.4z"/><path class="st0" d="M190.7 69l0.7-3.7c0.1-0.6 0.2-1.1 0.3-1.6h0.8l-0.1 1.1 0 0c0.5-0.8 1.2-1.1 2-1.1 0.6 0 1.4 0.4 1.4 1.4 0 0.3 0 0.6-0.1 0.9l-0.6 3.1h-0.9l0.6-3c0.1-0.2 0.1-0.4 0.1-0.7 0-0.5-0.2-0.9-0.9-0.9s-1.5 0.8-1.8 2.1l-0.5 2.6H190.7L190.7 69z"/><path class="st0" d="M196.3 68.1c0.3 0.1 0.7 0.4 1.2 0.4 0.6 0 1-0.4 1-0.9 0-0.4-0.2-0.7-0.7-1 -0.6-0.3-0.9-0.8-0.9-1.3 0-0.9 0.8-1.6 1.9-1.6 0.5 0 0.9 0.1 1.1 0.2l-0.3 0.7c-0.2-0.1-0.5-0.2-0.9-0.2 -0.6 0-0.9 0.4-0.9 0.8 0 0.4 0.3 0.6 0.8 0.9 0.6 0.4 1 0.8 1 1.4 0 1.1-0.9 1.8-2 1.8 -0.5 0-1-0.1-1.3-0.3L196.3 68.1z"/><path class="st0" d="M205.5 63.6L204.8 67.4c-0.1 0.6-0.2 1.1-0.2 1.6h-0.8l0.1-1 0 0c-0.5 0.7-1.1 1.1-1.8 1.1s-1.4-0.3-1.4-1.5c0-0.2 0.1-0.5 0.1-0.9l0.6-3h0.9l-0.5 3c-0.1 0.3-0.1 0.6-0.1 0.8 0 0.6 0.2 0.9 0.9 0.9s1.5-0.8 1.8-1.9l0.5-2.7h0.8V63.6z"/><path class="st0" d="M205.8 69l0.7-3.4c0.2-0.7 0.2-1.4 0.3-1.9h0.8c-0.1 0.4-0.1 0.8-0.1 1.2h0.1c0.4-0.7 0.9-1.2 1.6-1.2 0.1 0 0.2 0 0.2 0l-0.1 0.9c0 0-0.1 0-0.2 0 -0.8 0-1.5 0.9-1.7 2.2L206.7 69h-0.9V69z"/><path class="st0" d="M212.6 69c0-0.3 0.1-0.8 0.1-1.3l0 0c-0.6 1.1-1.3 1.5-2 1.5 -0.9 0-1.5-0.7-1.5-1.7 0-1.8 1.4-3.8 3.7-3.8 0.5 0 1 0.1 1.4 0.2L213.6 66.5c-0.2 0.9-0.2 1.9-0.2 2.5H212.6zM213.1 64.4c-0.1-0.1-0.3-0.1-0.6-0.1 -1.4 0-2.5 1.4-2.5 2.9 0 0.6 0.2 1.1 0.9 1.1 0.8 0 1.7-1 1.9-2.4L213.1 64.4z"/><path class="st0" d="M214.6 69l0.7-3.7c0.1-0.6 0.2-1.1 0.3-1.6h0.8L216.2 64.7l0 0c0.5-0.8 1.2-1.1 1.9-1.1 0.6 0 1.4 0.4 1.4 1.4 0 0.3 0 0.6-0.1 0.9l-0.6 3.1H217.9l0.6-3c0-0.2 0-0.4 0-0.7 0-0.5-0.2-0.9-0.8-0.9s-1.5 0.8-1.8 2.1l-0.5 2.6H214.6L214.6 69z"/><path class="st0" d="M223.9 68.8c-0.2 0.1-0.8 0.4-1.5 0.4 -1.4 0-2.1-0.9-2.1-2 0-1.8 1.4-3.5 3.2-3.5 0.5 0 1 0.1 1.1 0.2l-0.2 0.7c-0.2-0.1-0.5-0.2-0.9-0.2 -1.4 0-2.2 1.4-2.2 2.6 0 0.9 0.4 1.4 1.3 1.4 0.6 0 1-0.1 1.2-0.3L223.9 68.8z"/><path class="st0" d="M228.6 68.7c-0.4 0.2-1 0.4-1.7 0.4 -1.4 0-2-0.9-2-2.1 0-1.6 1.2-3.4 2.9-3.4 1 0 1.6 0.6 1.6 1.4 0 1.4-1.5 1.8-3.5 1.7 0 0.3 0 0.7 0.1 1 0.2 0.5 0.6 0.7 1.2 0.7 0.6 0 1.1-0.2 1.4-0.4L228.6 68.7zM228.5 65c0-0.4-0.3-0.6-0.8-0.6 -0.9 0-1.5 0.9-1.8 1.7C227.4 66 228.5 65.8 228.5 65L228.5 65z"/><path class="st1" d="M115.5 49.6c0 0.2 0.2 1.2-0.4 2.2 -0.3 0.5-1 0.4-1.2 0 -0.1-0.3 0-0.4 0.1-0.5 0.2-0.2 0.1-0.2 0-0.3 -0.2-0.1 0-0.2 0.1-0.1 0.2 0 0.1-0.1 0-0.3 0 0-0.5-0.3-0.8 0.3 -0.1 0.2-0.6 1.1-0.1 1.8 0.9 1.5 2.7 1 3.5 0.1 0.7-0.8 1.3-2 1.3-3.5 -0.8-0.1-1.6-0.4-2.4-0.7C115.5 49 115.5 49.4 115.5 49.6zM120.6 47.7c-0.9 0.1-1.8 0-2.7-0.1 -1.3-0.3-2.4-0.8-3.4-1.5 0.8 0.4 1.7 0.6 2.6 0.7 0.2 0 0.3 0.1 0.5 0.1 -0.7-2.3-1.7-2.9-2-3.7 -0.1-0.3-0.3-0.6-0.6-1 -0.6-0.9-1.4-1.7-2.3-2.5 -0.4-0.4-1.8-0.5-3.2-0.3 -1.9-1.8-4.2-2.7-5.6-1.7 0 0 0 0 0 0.1 -0.4 0.3-0.6 0.6-0.8 1 -0.1 0.2-0.2 0.5-0.2 0.7 -0.8 0.1-2.9-0.3-2.9-0.3s-3.8-1-6.4 3.4c0 0-1.3 2-1.4 4 0 0.4-0.1 0.9-0.2 1.5 -0.6 2.1-1.8 2.8-2.8 3l0 0c0 0-0.1 0.1-0.1 0.1 0 0.1 0.1 0.1 0.1 0.1 0.4 0 0.9-0.1 1.4-0.3 0.4-0.1 0.8-0.4 1.2-0.8 0.2-0.2 0.4-0.5 0.6-0.8 0.1 1.2 0.1 2.8-0.5 3.8 0 0-1.6 3-1.3 5.5C92.4 63 97.4 66.2 103.1 66.2s10.8-3.3 13.3-8h-6.1c0-0.6-0.2-2.7-1.6-5.6 0 0-0.6-1.4-0.7-3 -1.8-0.7-3.3-2.2-4.1-4.1l0 0 0 0c0 0 0 0 0 0 0 0 0.1-0.1 0.1-0.1 0.1 0 0.1 0 0.1 0.1l0 0c0.8 1.2 2.1 2.8 4.4 3.5 0 0 2.9 0.8 2.1-1.8 0 0 0.3 0.5 1.8 0.3 0 0 0.1 0.2 0.3 0.2C112.8 47.5 113 47.5 113 47.5c0.2 0.3 0.6 0.5 0.8 0 0 0 0.1-0.1 0.1-0.1 0.7 0.3 1.4 0.5 2.1 0.7 1.6 0.3 3.1 0.3 4.6 0l0 0c0 0 0 0 0.1 0h0.1l0 0c0.1 0 0.3-0.1 0.3-0.1C120.8 47.8 120.7 47.7 120.6 47.7zM92.7 58.1c0-3 0.9-4.1 1.1-4.6C93.8 53.3 94 53.1 94.1 53c0.1 0.3 0.3 0.7 0.3 1.2 0.1 1.2-0.2 2.4 0.3 3.9H92.7zM102.4 51.5c0 0.8 0 1.5-0.2 2.2l0 0c-0.2 1.4-0.9 3.1-0.4 4.4H97.7c-0.2-0.4-0.7-1.1-1-2.4 -0.2-1.5-0.2-2.1 0.2-3.1 0.4-1 1.3-1.4 1.5-1.4 0.3 0 1.4 0.1 2.2-0.2s1.2-0.6 1.6-0.4C102.5 50.5 102.5 51.3 102.4 51.5zM105.6 52.6c0 0 1.6 2.1 1.6 5.5h-2.6C104.4 57.6 104 55.8 105.6 52.6zM113.4 43.7c-0.3 0.1-0.7-0.2-0.7-0.6 0-0.3 0.2-0.6 0.6-0.7 0.4 0 0.7 0.2 0.7 0.6C114 43.4 113.8 43.7 113.4 43.7z"/><path class="st0" d="M227.6 43.8l0.8-3.9h-4l-0.8 3.9L222 43.9l-0.7 3.2 1.6 0.1 -1.4 6.6c-0.1 0.5-0.2 1-0.2 1.5 0 1.3 0.4 2.2 1.2 2.7 0.8 0.5 1.8 0.7 2.9 0.7 1.4 0 2.8-0.2 4.1-0.8l0.2-0.1L228.7 54.5l-0.2 0.1c-0.7 0.3-1.6 0.5-2.3 0.5 -0.5 0-0.9-0.1-0.9-0.6 0-0.1 0-0.1 0-0.2l1.6-7h4.1l0.1-0.2 0.8-3.3H227.6V43.8zM143.4 55.1c-0.2 0.1-0.5 0.2-0.8 0.2C142.2 55.2 142 55.1 142 54.8c0-0.1 0-0.2 0-0.3l-0.2 0 0.3 0 3.7-17.1h-3.9l-3.6 17c-0.1 0.5-0.1 0.9-0.1 1.5 0 1 0.3 1.7 0.8 2.2 0.5 0.5 1.3 0.7 2.3 0.7 1.1 0 2.1-0.2 3-0.5l0.2-0.1L143.7 55 143.4 55.1zM156.1 54.5c-1.1 0.5-2.3 0.7-3.4 0.7 -1.9 0-3-0.8-3.1-2.7h9.2l0.1-0.1c0.4-0.9 0.7-1.9 0.7-2.9 0-1.7-0.6-3.2-1.6-4.3 -1-1-2.5-1.6-4.3-1.6 -4.7 0-7.9 4-7.9 8.5 0 2.1 0.7 3.8 2 4.9 1.3 1.1 3 1.8 5 1.8 1.7 0 3.3-0.4 4.8-1.1l0.2-0.1 -1-3L156.1 54.5zM153.3 46.8c1.3 0 2.2 1.1 2.2 2.4 0 0.1 0 0.2 0 0.3H150C150.5 48 151.7 46.8 153.3 46.8zM172.5 45.3c-1.3-1.1-3.1-1.7-5.1-1.7 -1.7 0-3.4 0.4-5 1l-0.1 0.1v0.2c0 0.6-0.1 1.3-0.2 2l-3.8 18h4l1.4-6.5c0.9 0.3 1.9 0.5 2.8 0.5 4.7 0 8.4-3.7 8.4-8.4C174.6 48.2 173.9 46.5 172.5 45.3zM166 55.2c-0.6 0-1.2-0.1-1.8-0.3l1.5-7c0-0.2 0.1-0.5 0.1-0.7 0.5-0.1 0.9-0.2 1.5-0.2 2.1 0 3.2 1.3 3.3 3.4C170.5 52.9 168.6 55.2 166 55.2zM188.7 44.5c-0.8-0.7-2-1-3.3-1 -1.1 0-2.4 0.3-3.4 0.7l1.5-6.9h-3.9l-4.5 21.1h3.9L181.2 47.8c0.9-0.5 2.1-0.8 3.1-0.8 1.2 0.1 1.6 0.5 1.6 1.7 0 0.2 0 0.5-0.1 0.8l-1.9 9h3.9l2-9.2L189.6 49l0.3 0.1c0.1-0.5 0.1-0.9 0.1-1.4C190 46.3 189.5 45.2 188.7 44.5zM202.9 44.4c-1-0.6-2.4-0.9-3.6-0.9 -1.9 0-3.9 0.5-5.7 1.2l-0.2 0.1 1.1 3.1 0.3-0.1c1.3-0.5 2.8-0.8 4.1-0.8 0.4 0 0.9 0.1 1.2 0.2 0.4 0.2 0.6 0.4 0.6 0.7 0 0.5-0.4 0.8-1.4 1.1 -1.4 0.4-3.5 0.6-5.3 1.3 -1.8 0.7-3.4 2-3.4 4.4 0 1.6 0.8 2.7 2 3.3 1.2 0.6 2.7 0.8 4.3 0.9 2.2 0 4.5-0.4 5.9-0.8l0.2 0v-0.2c0 0 0.1-1.4 0.1-1.9l1.5-6.7c0.1-0.4 0.1-0.8 0.1-1.3C204.6 46.1 203.9 45 202.9 44.4zM199.3 54.4c-0.1 0.3-0.1 0.6-0.1 0.8 -0.7 0.2-1.5 0.3-2.3 0.3 -0.4 0-1-0.1-1.5-0.3s-0.7-0.4-0.7-0.9c0-0.8 0.9-1.3 2.2-1.6 1-0.2 2.1-0.4 3-0.7L199.3 54.4zM218.1 44.5c-0.9-0.7-2.2-0.9-3.6-0.9 -2.3 0-4.9 0.7-7 1.4l-0.1 0.1v0.2c0 0-0.1 1.5-0.1 1.9l-2.4 11.4h4L211 48.1c0-0.2 0-0.5 0-0.7 0.9-0.2 1.8-0.4 2.7-0.4 1.3 0.1 2 0.4 2 1.6 0 0.4 0 0.8-0.1 1.1l-1.8 8.7h4l1.8-8.4c0.2-0.7 0.3-1.3 0.3-2.1C219.7 46.3 219.1 45.2 218.1 44.5zM135.4 49.9l0.8-3.5h-6.4l0.9-4.1h7.7l0.1-0.2 0.8-3.3h-11.7l-4.2 19.6H135l0.8-3.5h-7.9l1.1-4.9h6.4V49.9z"/><path class="st0" d="M233.1 54.6c0.3 0 0.6 0.1 0.9 0.2 0.3 0.2 0.6 0.4 0.7 0.7 0.2 0.3 0.3 0.6 0.3 1 0 0.3-0.1 0.6-0.2 0.9 -0.1 0.3-0.4 0.6-0.7 0.7 -0.3 0.1-0.6 0.3-0.9 0.3s-0.6-0.1-1-0.2c-0.3-0.1-0.5-0.4-0.7-0.7C231.3 57.1 231.2 56.8 231.2 56.5s0.1-0.6 0.3-0.9c0.1-0.3 0.4-0.5 0.7-0.7C232.6 54.7 232.9 54.6 233.1 54.6zM233.1 54.9c-0.2 0-0.5 0.1-0.7 0.2 -0.2 0.1-0.4 0.4-0.6 0.6 -0.1 0.3-0.2 0.5-0.2 0.8 0 0.3 0.1 0.5 0.2 0.7 0.2 0.3 0.4 0.5 0.6 0.6 0.3 0.1 0.5 0.2 0.8 0.2 0.3 0 0.6 0 0.8-0.2 0.2-0.1 0.4-0.4 0.6-0.6 0.2-0.2 0.2-0.5 0.2-0.7s0-0.5-0.2-0.8 -0.4-0.5-0.6-0.6C233.7 55 233.4 54.9 233.1 54.9zM232.4 57.5v-2h0.7c0.3 0 0.4 0 0.5 0.1 0.1 0.1 0.2 0.1 0.3 0.2 0.1 0.1 0.1 0.2 0.1 0.3 0 0.2-0.1 0.3-0.2 0.4 -0.1 0.1-0.2 0.2-0.4 0.2 0 0.1 0.1 0.1 0.1 0.1 0.1 0.1 0.2 0.2 0.3 0.4L234 57.5h-0.4l-0.2-0.3c-0.1-0.2-0.2-0.4-0.3-0.4C233 56.7 232.9 56.7 232.8 56.7h-0.2v0.8H232.4zM232.6 56.4h0.4c0.2 0 0.3-0.1 0.4-0.1 0-0.1 0.1-0.1 0.1-0.2 0 0 0-0.1 0-0.1 0-0.1-0.1-0.1-0.1-0.1 -0.1 0-0.1 0-0.3 0h-0.3V56.4H232.6z"/></svg>