<?xml version="1.0" encoding="utf-8"?>
<!-- Generator: Adobe Illustrator 16.0.0, SVG Export Plug-In . SVG Version: 6.00 Build 0)  -->
<!DOCTYPE svg PUBLIC "-//W3C//DTD SVG 1.1//EN" "http://www.w3.org/Graphics/SVG/1.1/DTD/svg11.dtd">
<svg version="1.1" id="Layer_1" xmlns="http://www.w3.org/2000/svg" xmlns:xlink="http://www.w3.org/1999/xlink" x="0px" y="0px"
	 width="90px" height="90px" viewBox="0 0 90 90" enable-background="new 0 0 90 90" xml:space="preserve">
<linearGradient id="SVGID_1_" gradientUnits="userSpaceOnUse" x1="44.835" y1="7.3457" x2="44.835" y2="82.3457">
	<stop  offset="0" style="stop-color:#43B4E7"/>
	<stop  offset="0.95" style="stop-color:#0398D1"/>
</linearGradient>
<circle fill="url(#SVGID_1_)" cx="44.835" cy="44.846" r="37.5"/>
<polygon fill="#44C8F5" points="44.834,34.363 49.395,10.206 47.547,34.721 58.204,12.566 50.075,35.769 66.104,17.127 
	52.245,37.435 72.553,23.576 53.911,39.604 77.113,31.476 54.958,42.133 79.474,40.285 55.316,44.846 79.474,49.405 54.958,47.558 
	77.113,58.215 53.911,50.086 72.553,66.114 52.245,52.256 66.104,72.563 50.075,53.922 58.204,77.124 47.547,54.97 49.395,79.484 
	44.834,55.327 40.274,79.484 42.122,54.97 31.465,77.124 39.594,53.922 23.565,72.563 37.423,52.256 17.116,66.114 35.758,50.086 
	12.556,58.215 34.71,47.558 10.195,49.405 34.353,44.846 10.195,40.285 34.71,42.133 12.556,31.476 35.758,39.604 17.116,23.576 
	37.423,37.435 23.565,17.127 39.594,35.769 31.465,12.566 42.122,34.721 40.274,10.206 "/>
<g>
	<path fill="#FFFFFF" d="M43.981,28.256c-2.25,0-6.23-1.03-9.258-2.396c-3.467-1.563-7.282-3.833-5.999-7.537
		c0.783-2.263,2.374-3.509,4.479-3.509c2.291,0,4.514,1.472,5.526,2.925c3.947,5.658,5.628,7.215,6.437,7.963
		c0.311,0.288,0.516,0.478,0.669,0.747c0.303,0.535,0.162,0.934,0.051,1.124C45.614,28.039,45.009,28.256,43.981,28.256z
		 M33.203,16.038c-1.566,0-2.715,0.929-3.324,2.686c-0.535,1.544-0.318,3.467,5.347,6.021c3.175,1.432,6.945,2.288,8.755,2.288
		c0.365,0,0.59-0.033,0.722-0.065c-0.086-0.106-0.205-0.216-0.368-0.368c-0.839-0.777-2.586-2.395-6.609-8.161
		C36.915,17.274,35.055,16.038,33.203,16.038z"/>
</g>
<g>
	<path fill="#FFFFFF" d="M46.379,28.256L46.379,28.256c-1.028,0-1.633-0.217-1.904-0.683c-0.111-0.19-0.251-0.589,0.051-1.123
		c0.152-0.27,0.358-0.46,0.67-0.749c0.809-0.749,2.491-2.308,6.435-7.962c1.012-1.453,3.235-2.925,5.526-2.925
		c2.104,0,3.696,1.246,4.479,3.509c1.281,3.704-2.533,5.974-6,7.537C52.609,27.226,48.629,28.256,46.379,28.256z M45.652,26.966
		c0.131,0.033,0.356,0.067,0.727,0.067c1.811,0,5.58-0.855,8.756-2.288c5.663-2.554,5.881-4.478,5.346-6.021
		c-0.608-1.757-1.758-2.686-3.323-2.686c-1.853,0-3.712,1.237-4.522,2.401c-4.021,5.763-5.768,7.382-6.607,8.16
		C45.852,26.761,45.729,26.875,45.652,26.966z"/>
</g>
<rect x="24.248" y="28.063" fill="#FFFFFF" width="41.583" height="41.582"/>
<rect x="44.03" y="28.029" fill="#3399CC" width="2.017" height="41.661"/>
<rect x="24.262" y="47.991" fill="#3399CC" width="41.6" height="1.729"/>
</svg>
