<svg xmlns="http://www.w3.org/2000/svg" xmlns:xlink="http://www.w3.org/1999/xlink" version="1.1" x="0px" y="0px" width="75px" height="74.999px" viewBox="0 0 75 74.999" enable-background="new 0 0 75 74.999" xml:space="preserve"><style>.style0{stop-color:	#43B4E7;}.style1{stop-color:	#0398D1;}.style2{fill:	url(#SVGID_1_);}.style3{fill:	none;}.style4{fill:	#FFFFFF;}</style><g id="Layer_1"></g><g id="Layer_2"><linearGradient id="SVGID_1_" gradientUnits="userSpaceOnUse" x1="37.5" y1="-0" x2="37.5" y2="75"><stop offset="0" class="style0"/><stop offset="0.95" class="style1"/></linearGradient><circle cx="37.5" cy="37.5" r="37.5" class="style2"/><g><g><path d="M37.5 47.232c-2.38 0-4.308 1.93-4.308 4.309c0 1.2 0.5 2.3 1.4 3.131l-0.994 5.824h7.877 l-0.995-5.823c0.836-0.786 1.364-1.894 1.364-3.132C41.808 49.2 39.9 47.2 37.5 47.232z" class="style3"/><path d="M55.705 27.702L55.705 27.702C55.283 16.9 47.3 8.2 37.5 8.2 c-9.807 0-17.784 8.638-18.206 19.464h-0.019l-0.022 18.702c0 11.2 8.2 20.4 18.2 20.4 c10.076 0 18.245-9.114 18.245-20.357L55.705 27.702z M37.5 10.491c7.867 0 14.4 6.4 15.7 14.96H21.769 C23.082 16.9 29.6 10.5 37.5 10.491z M41.438 60.494h-7.877l0.994-5.824c-0.835-0.785-1.363-1.894-1.363-3.131 c0-2.379 1.928-4.309 4.308-4.309c2.38 0 4.3 1.9 4.3 4.309c0 1.238-0.528 2.346-1.364 3.132L41.438 60.494z" class="style4"/></g></g></g></svg>